g Dollar_Pack
v -1 -0.2703096 0.5682185
v -1 -0.2703096 -0.5682185
v -1 0.2703096 -0.5682185
v -1 0.2703096 0.5682185
v 0.2018852 -0.235346 -0.537185
v 1 -0.2703096 -0.5814094
v 1 0.2703096 -0.5814094
v 0.2018852 0.235346 -0.537185
v 1 -0.2703096 -0.5814094
v 1 -0.2703096 0.5814094
v 1 0.2703096 0.5814094
v 1 0.2703096 -0.5814094
v -0.2018852 -0.235346 0.537185
v -1 -0.2703096 0.5682185
v -1 0.2703096 0.5682185
v -0.2018852 0.235346 0.537185
v 0.2018852 -0.235346 -0.537185
v 0.2018852 -0.235346 0.537185
v 1 -0.2703096 0.5814094
v 1 -0.2703096 -0.5814094
v -0.2018852 0.235346 -0.537185
v -0.2018852 0.235346 0.537185
v -1 0.2703096 0.5682185
v -1 0.2703096 -0.5682185
v 1 0.2703096 -0.5814094
v 1 0.2703096 0.5814094
v 0.2018852 0.235346 0.537185
v 0.2018852 0.235346 -0.537185
v -1 -0.2703096 -0.5682185
v -1 -0.2703096 0.5682185
v -0.2018852 -0.235346 0.537185
v -0.2018852 -0.235346 -0.537185
v -0.2018852 -0.2563432 -0.6104453
v 0.2018852 -0.2563432 -0.6104453
v 0.2018852 0.2563432 -0.6104453
v -0.2018852 0.2563432 -0.6104453
v 1 -0.2703096 0.5814094
v 0.2018852 -0.235346 0.537185
v 0.2018852 0.235346 0.537185
v 1 0.2703096 0.5814094
v 0.2018852 -0.2563432 0.6104453
v -0.2018852 -0.2563432 0.6104453
v -0.2018852 0.2563432 0.6104453
v 0.2018852 0.2563432 0.6104453
v -1 -0.2703096 -0.5682185
v -0.2018852 -0.235346 -0.537185
v -0.2018852 0.235346 -0.537185
v -1 0.2703096 -0.5682185
v 0.2018852 0.3025526 -0.5049705
v 0.2018852 0.3025526 0.5049705
v -0.2018852 0.3025526 0.5049705
v -0.2018852 0.3025526 -0.5049705
v 0.2018852 0.2890182 -0.5795524
v -0.2018852 0.2890182 -0.5795524
v 0.2018852 -0.3025526 -0.5049705
v 0.2018852 -0.2890182 -0.5795524
v -0.2018852 -0.2890182 -0.5795524
v -0.2018852 -0.3025526 -0.5049705
v 0.2018852 -0.3025526 0.5049705
v -0.2018852 -0.3025526 0.5049705
v 0.2018852 -0.2890182 0.5795524
v -0.2018852 -0.2890182 0.5795524
v 0.2018852 -0.2890182 -0.5795524
v 0.2018852 -0.2563432 -0.6104453
v -0.2018852 -0.2563432 -0.6104453
v -0.2018852 -0.2890182 -0.5795524
v -0.2018852 0.2890182 -0.5795524
v -0.2018852 0.2563432 -0.6104453
v 0.2018852 0.2563432 -0.6104453
v 0.2018852 0.2890182 -0.5795524
v -0.2018852 -0.2890182 0.5795524
v -0.2018852 -0.2563432 0.6104453
v 0.2018852 -0.2563432 0.6104453
v 0.2018852 -0.2890182 0.5795524
v 0.2018852 0.3025526 0.5049705
v 0.2018852 0.2890182 0.5795524
v -0.2018852 0.2890182 0.5795524
v -0.2018852 0.3025526 0.5049705
v 0.2018852 0.2890182 0.5795524
v 0.2018852 0.2563432 0.6104453
v -0.2018852 0.2563432 0.6104453
v -0.2018852 0.2890182 0.5795524
v 0.2018852 -0.2608543 -0.564991
v 0.2018852 -0.3025526 -0.5049705
v 0.2018852 -0.3025526 0.5049705
v 0.2018852 -0.2890182 -0.5795524
v 0.2018852 -0.2563432 -0.6104453
v 0.2018852 -0.2608543 0.564991
v 0.2018852 -0.2890182 0.5795524
v 0.2018852 -0.2563432 0.6104453
v 0.2018852 -0.235346 -0.537185
v 0.2018852 0.2563432 -0.6104453
v 0.2018852 -0.235346 0.537185
v 0.2018852 0.2563432 0.6104453
v 0.2018852 0.235346 -0.537185
v 0.2018852 0.235346 0.537185
v 0.2018852 0.2608543 -0.564991
v 0.2018852 0.2890182 -0.5795524
v 0.2018852 0.3025526 -0.5049705
v 0.2018852 0.2608543 0.564991
v 0.2018852 0.2890182 0.5795524
v 0.2018852 0.3025526 0.5049705
v -0.2018852 -0.2563432 -0.6104453
v -0.2018852 -0.2608543 -0.564991
v -0.2018852 -0.2890182 -0.5795524
v -0.2018852 -0.3025526 -0.5049705
v -0.2018852 -0.235346 -0.537185
v -0.2018852 0.2563432 -0.6104453
v -0.2018852 -0.2608543 0.564991
v -0.2018852 -0.3025526 0.5049705
v -0.2018852 -0.2890182 0.5795524
v -0.2018852 -0.2563432 0.6104453
v -0.2018852 -0.235346 0.537185
v -0.2018852 0.2563432 0.6104453
v -0.2018852 0.235346 0.537185
v -0.2018852 0.235346 -0.537185
v -0.2018852 0.2608543 0.564991
v -0.2018852 0.2890182 0.5795524
v -0.2018852 0.3025526 0.5049705
v -0.2018852 0.2608543 -0.564991
v -0.2018852 0.2890182 -0.5795524
v -0.2018852 0.3025526 -0.5049705
vt 0.6538057 0.7979144
vt 0.7817171 0.7979144
vt 0.7817171 0.4434491
vt 0.6538057 0.4434492
vt 0.831063 0.7314814
vt 0.8795809 0.755551
vt 0.8795809 0.4011268
vt 0.831063 0.4229008
vt 0.522608 0.7979141
vt 0.653489 0.7979144
vt 0.653489 0.4434491
vt 0.5226081 0.4434491
vt 0.8798977 0.7312145
vt 0.9283175 0.755085
vt 0.9283175 0.4008937
vt 0.8798977 0.4228367
vt 0.4374458 0.3016632
vt 0.05249869 0.3016632
vt 0.03665305 0.5731825
vt 0.4532914 0.5731825
vt 0.02916807 0.955231
vt 0.4712713 0.9556762
vt 0.4842223 0.7762341
vt 0.01657861 0.7757631
vt 0.005722588 0.7756357
vt 0.4842225 0.7761176
vt 0.4662049 0.5966443
vt 0.02410175 0.5961989
vt 0.4438386 0.02996725
vt 0.03665307 0.02996728
vt 0.04777233 0.3014867
vt 0.4327192 0.3014868
vt 0.8306512 0.07291849
vt 0.7990909 0.07251118
vt 0.7981061 0.5050244
vt 0.8296664 0.5054315
vt 0.8795809 0.04606212
vt 0.831063 0.07013164
vt 0.831063 0.3787121
vt 0.8795809 0.4004864
vt 0.7981332 0.9612662
vt 0.8230932 0.961287
vt 0.8230358 0.6192232
vt 0.7980757 0.6192024
vt 0.9283175 0.04606212
vt 0.8798977 0.06993257
vt 0.8798977 0.3783104
vt 0.9283175 0.4002534
vt 0.7981278 0.5478188
vt 0.7991861 0.5843109
vt 0.8307462 0.5847182
vt 0.829688 0.548226
vt 0.7980757 0.5337059
vt 0.8296359 0.5341131
vt 0.5332583 0.7985547
vt 0.522608 0.7985547
vt 0.522608 0.848185
vt 0.5332583 0.848185
vt 0.6774759 0.7985547
vt 0.6774759 0.848185
vt 0.688126 0.7985547
vt 0.688126 0.848185
vt 0.7991861 0.04606212
vt 0.7990909 0.07251118
vt 0.8306512 0.07291849
vt 0.8307462 0.04646925
vt 0.8296359 0.5341131
vt 0.8296664 0.5054315
vt 0.7981061 0.5050244
vt 0.7980757 0.5337059
vt 0.8231244 0.9822053
vt 0.8230932 0.961287
vt 0.7981332 0.9612662
vt 0.7981643 0.9821845
vt 0.7981643 0.5853587
vt 0.7980995 0.5965193
vt 0.8230597 0.59654
vt 0.8231244 0.5853795
vt 0.7980995 0.5965193
vt 0.7980757 0.6192024
vt 0.8230358 0.6192232
vt 0.8230597 0.59654
vt 0.6549091 0.07340227
vt 0.6481535 0.04606212
vt 0.5344798 0.04606212
vt 0.6565481 0.05493618
vt 0.6600252 0.07636
vt 0.5277241 0.07340227
vt 0.5260853 0.05493627
vt 0.522608 0.07636009
vt 0.6517794 0.09012713
vt 0.6600252 0.4125106
vt 0.5308539 0.09012718
vt 0.522608 0.4125107
vt 0.6517794 0.3987436
vt 0.5308539 0.3987436
vt 0.6549091 0.4154685
vt 0.6565481 0.4339346
vt 0.6481535 0.4428087
vt 0.5277241 0.4154685
vt 0.5260853 0.4339346
vt 0.5344798 0.4428087
vt 0.6603419 0.07636
vt 0.6654581 0.07340227
vt 0.6638191 0.05493612
vt 0.6722137 0.04606212
vt 0.6685878 0.09012713
vt 0.6603419 0.4125105
vt 0.792643 0.07340227
vt 0.7858874 0.04606212
vt 0.7942819 0.05493618
vt 0.797759 0.07636015
vt 0.7895132 0.09012718
vt 0.797759 0.4125105
vt 0.7895132 0.3987435
vt 0.6685878 0.3987435
vt 0.792643 0.4154683
vt 0.7942819 0.4339344
vt 0.7858874 0.4428084
vt 0.6654581 0.4154683
vt 0.6638191 0.4339344
vt 0.6722136 0.4428085
vn -1 0 0
vn -1 0 0
vn -1 0 0
vn -1 0 0
vn -0.05532627 0 -0.9984683
vn -0.05532627 0 -0.9984683
vn -0.05532627 0 -0.9984683
vn -0.05532627 0 -0.9984683
vn 1 0 0
vn 1 0 0
vn 1 0 0
vn 1 0 0
vn 0.03885417 0 0.9992449
vn 0.03885417 0 0.9992449
vn 0.03885417 0 0.9992449
vn 0.03885417 0 0.9992449
vn -0.04376581 -0.9990417 0
vn -0.04376581 -0.9990417 0
vn -0.04376581 -0.9990417 0
vn -0.04376581 -0.9990417 0
vn 0.04376582 0.9990417 0
vn 0.04376582 0.9990417 0
vn 0.04376582 0.9990417 0
vn 0.04376582 0.9990417 0
vn -0.04376581 0.9990417 0
vn -0.04376581 0.9990417 0
vn -0.04376581 0.9990417 0
vn -0.04376581 0.9990417 0
vn 0.04376582 -0.9990417 0
vn 0.04376582 -0.9990417 0
vn 0.04376582 -0.9990417 0
vn 0.04376582 -0.9990417 0
vn 0 0 -1
vn 0 0 -1
vn 0 0 -1
vn 0 0 -1
vn -0.05532627 0 0.9984683
vn -0.05532627 0 0.9984683
vn -0.05532627 0 0.9984683
vn -0.05532627 0 0.9984683
vn 0 0 1
vn 0 0 1
vn 0 0 1
vn 0 0 1
vn 0.03885417 0 -0.9992449
vn 0.03885417 0 -0.9992449
vn 0.03885417 0 -0.9992449
vn 0.03885417 0 -0.9992449
vn 0 0.9959744 -0.08963846
vn 0 0.9959744 0.08963846
vn 0 0.9959744 0.08963846
vn 0 0.9959744 -0.08963846
vn 0 0.9839298 -0.1785552
vn 0 0.9839298 -0.1785552
vn 0 -0.9959744 -0.08963846
vn 0 -0.9839298 -0.1785552
vn 0 -0.9839298 -0.1785552
vn 0 -0.9959744 -0.08963846
vn 0 -0.9959744 0.08963846
vn 0 -0.9959744 0.08963846
vn 0 -0.9839298 0.1785552
vn 0 -0.9839298 0.1785552
vn 0 -0.6870132 -0.726645
vn 0 -0.6870132 -0.726645
vn 0 -0.6870132 -0.726645
vn 0 -0.6870132 -0.726645
vn 0 0.6870132 -0.726645
vn 0 0.6870132 -0.726645
vn 0 0.6870132 -0.726645
vn 0 0.6870132 -0.726645
vn 0 -0.6870132 0.726645
vn 0 -0.6870132 0.726645
vn 0 -0.6870132 0.726645
vn 0 -0.6870132 0.726645
vn 0 0.9959744 0.08963846
vn 0 0.9839298 0.1785552
vn 0 0.9839298 0.1785552
vn 0 0.9959744 0.08963846
vn 0 0.6870132 0.726645
vn 0 0.6870132 0.726645
vn 0 0.6870132 0.726645
vn 0 0.6870132 0.726645
vn 1 0 1.709247E-07
vn 1 0 0
vn 1 0 0
vn 1 0 1.277515E-07
vn 1 0 3.105084E-07
vn 1 0 -1.216723E-07
vn 1 0 0
vn 1 0 -2.327423E-07
vn 1 0 1.63131E-07
vn 1 0 2.327423E-07
vn 1 0 -1.63131E-07
vn 1 0 -3.105084E-07
vn 1 0 1.63131E-07
vn 1 0 -1.63131E-07
vn 1 0 1.216723E-07
vn 1 0 0
vn 1 0 0
vn 1 0 -1.709247E-07
vn 1 0 -1.277515E-07
vn 1 0 0
vn -1 0 2.327423E-07
vn -1 0 1.216723E-07
vn -1 0 0
vn -1 0 0
vn -1 0 1.63131E-07
vn -1 0 3.105084E-07
vn -1 0 -1.709247E-07
vn -1 0 0
vn -1 0 -1.277515E-07
vn -1 0 -3.105084E-07
vn -1 0 -1.63131E-07
vn -1 0 -2.327423E-07
vn -1 0 -1.63131E-07
vn -1 0 1.63131E-07
vn -1 0 -1.216723E-07
vn -1 0 0
vn -1 0 0
vn -1 0 1.709247E-07
vn -1 0 1.277515E-07
vn -1 0 0
g Dollar_Pack_0
f 3/3/3 2/2/2 1/1/1
f 4/4/4 3/3/3 1/1/1
f 7/7/7 6/6/6 5/5/5
f 8/8/8 7/7/7 5/5/5
f 11/11/11 10/10/10 9/9/9
f 12/12/12 11/11/11 9/9/9
f 15/15/15 14/14/14 13/13/13
f 16/16/16 15/15/15 13/13/13
f 19/19/19 18/18/18 17/17/17
f 20/20/20 19/19/19 17/17/17
f 23/23/23 22/22/22 21/21/21
f 24/24/24 23/23/23 21/21/21
f 27/27/27 26/26/26 25/25/25
f 28/28/28 27/27/27 25/25/25
f 31/31/31 30/30/30 29/29/29
f 32/32/32 31/31/31 29/29/29
f 35/35/35 34/34/34 33/33/33
f 36/36/36 35/35/35 33/33/33
f 39/39/39 38/38/38 37/37/37
f 40/40/40 39/39/39 37/37/37
f 43/43/43 42/42/42 41/41/41
f 44/44/44 43/43/43 41/41/41
f 47/47/47 46/46/46 45/45/45
f 48/48/48 47/47/47 45/45/45
f 51/51/51 50/50/50 49/49/49
f 52/52/52 51/51/51 49/49/49
f 49/49/49 53/53/53 52/52/52
f 53/53/53 54/54/54 52/52/52
f 57/57/57 56/56/56 55/55/55
f 58/58/58 57/57/57 55/55/55
f 55/55/55 59/59/59 58/58/58
f 59/59/59 60/60/60 58/58/58
f 59/59/59 61/61/61 60/60/60
f 61/61/61 62/62/62 60/60/60
f 65/65/65 64/64/64 63/63/63
f 66/66/66 65/65/65 63/63/63
f 69/69/69 68/68/68 67/67/67
f 70/70/70 69/69/69 67/67/67
f 73/73/73 72/72/72 71/71/71
f 74/74/74 73/73/73 71/71/71
f 77/77/77 76/76/76 75/75/75
f 78/78/78 77/77/77 75/75/75
f 81/81/81 80/80/80 79/79/79
f 82/82/82 81/81/81 79/79/79
f 85/85/85 84/84/84 83/83/83
f 86/86/86 83/83/83 84/84/84
f 87/87/87 83/83/83 86/86/86
f 83/83/83 88/88/88 85/85/85
f 85/85/85 88/88/88 89/89/89
f 89/89/89 88/88/88 90/90/90
f 91/91/91 83/83/83 87/87/87
f 83/83/83 91/91/91 88/88/88
f 87/87/87 92/92/92 91/91/91
f 90/90/90 88/88/88 93/93/93
f 91/91/91 93/93/93 88/88/88
f 93/93/93 94/94/94 90/90/90
f 92/92/92 95/95/95 91/91/91
f 93/93/93 96/96/96 94/94/94
f 92/92/92 97/97/97 95/95/95
f 96/96/96 95/95/95 97/97/97
f 98/98/98 97/97/97 92/92/92
f 99/99/99 97/97/97 98/98/98
f 96/96/96 100/100/100 94/94/94
f 97/97/97 100/100/100 96/96/96
f 97/97/97 99/99/99 100/100/100
f 94/94/94 100/100/100 101/101/101
f 99/99/99 102/102/102 100/100/100
f 101/101/101 100/100/100 102/102/102
f 105/105/105 104/104/104 103/103/103
f 106/106/106 104/104/104 105/105/105
f 103/103/103 104/104/104 107/107/107
f 107/107/107 108/108/108 103/103/103
f 109/109/109 104/104/104 106/106/106
f 106/106/106 110/110/110 109/109/109
f 111/111/111 109/109/109 110/110/110
f 112/112/112 109/109/109 111/111/111
f 113/113/113 107/107/107 104/104/104
f 109/109/109 113/113/113 104/104/104
f 113/113/113 109/109/109 112/112/112
f 112/112/112 114/114/114 113/113/113
f 114/114/114 115/115/115 113/113/113
f 107/107/107 116/116/116 108/108/108
f 114/114/114 117/117/117 115/115/115
f 116/116/116 115/115/115 117/117/117
f 118/118/118 117/117/117 114/114/114
f 119/119/119 117/117/117 118/118/118
f 116/116/116 120/120/120 108/108/108
f 117/117/117 120/120/120 116/116/116
f 117/117/117 119/119/119 120/120/120
f 108/108/108 120/120/120 121/121/121
f 119/119/119 122/122/122 120/120/120
f 121/121/121 120/120/120 122/122/122
